<svg viewBox="0 0 330 330" style="enable-background:new 0 0 330 330;" xml:space="preserve">
	<g>
		<circle cx="165" cy="165" r="165" fill="#327770"></circle>
		<g transform="translate(0,30)">
			<path fill="white" d="M211.667,127.121l-31.669,31.666V75c0-8.285-6.716-15-15-15c-8.284,0-15,6.715-15,15v83.787l-31.665-31.666
		c-5.857-5.857-15.355-5.857-21.213,0c-5.858,5.859-5.858,15.355,0,21.213l57.271,57.271c2.929,2.93,6.768,4.395,10.606,4.395
		c3.838,0,7.678-1.465,10.607-4.393l57.275-57.271c5.857-5.857,5.858-15.355,0.001-21.215
		C227.021,121.264,217.524,121.264,211.667,127.121z" />
		</g>
	</g>
</svg>