<?xml version="1.0"?>
<svg xmlns="http://www.w3.org/2000/svg" height="40px" viewBox="0 0 512 512" width="40px"><g><path d="m256 0c-141.385 0-256 114.615-256 256s114.615 256 256 256 256-114.615 256-256-114.615-256-256-256zm-16 144c0-8.837 7.164-16 16-16 8.837 0 16 7.163 16 16v88c0 8.837-7.163 16-16 16-8.836 0-16-7.163-16-16zm-67.313 84.686c6.248-6.249 16.379-6.249 22.627 0l60.686 60.687 60.687-60.686c6.248-6.249 16.379-6.249 22.627 0 6.249 6.249 6.249 16.379 0 22.627l-72 72c-6.248 6.248-16.379 6.249-22.627 0l-72-72c-6.249-6.249-6.249-16.379 0-22.628zm179.313 155.314h-192c-8.836 0-16-7.163-16-16s7.164-16 16-16h192c8.837 0 16 7.163 16 16s-7.163 16-16 16z" fill="rgb(243, 157, 141)"/></g> </svg>
