<svg id="color" enable-background="new 0 0 24 24" height="40" viewBox="0 0 24 24" width="40" xmlns="http://www.w3.org/2000/svg">
    <g >
        <path d="m12 0c-6.617 0-12 5.383-12 12s5.383 12 12 12 12-5.383 12-12-5.383-12-12-12z" fill="#00a4b9"/>
        <path d="m7 19h10c.553 0 1-.448 1-1s-.447-1-1-1h-10c-.553 0-1 .448-1 1s.447 1 1 1z" fill="#fff"/>
        <path d="m11.47 14.78c.146.147.338.22.53.22s.384-.073.53-.22l3.25-3.25c.472-.47.139-1.28-.53-1.28h-2.25v-4.5c0-.552-.447-1-1-1s-1 .448-1 1v4.5h-2.25c-.669 0-1.002.81-.53 1.28z" fill="#fff"/>
        <path d="m12 0c-6.617 0-12 5.383-12 12s5.383 12 12 12v-5h-5c-.553 0-1-.448-1-1s.447-1 1-1h5v-2c-.192 0-.384-.073-.53-.22l-3.25-3.25c-.472-.47-.139-1.28.53-1.28h2.25v-4.5c0-.552.447-1 1-1z" fill="#00a4b9"/>
        <g fill="#fff">
            <path d="m12 17h-5c-.553 0-1 .448-1 1s.447 1 1 1h5z"/>
            <path d="m12 4.75c-.553 0-1 .448-1 1v4.5h-2.25c-.669 0-1.002.81-.53 1.28l3.25 3.25c.146.147.338.22.53.22z"/>
        </g>
</g>
</svg>