<svg data-v-fde0c5aa="" xmlns="http://www.w3.org/2000/svg" viewBox="0 0 300 300" class="icon"><!----><defs data-v-fde0c5aa=""><!----></defs><rect data-v-fde0c5aa="" fill="transparent" x="0" y="0" width="300px" height="300px" class="logo-background-square"></rect><!----><defs data-v-fde0c5aa=""><linearGradient data-v-fde0c5aa="" gradientTransform="rotate(25)" id="ccdf82a6-2ed3-4511-ba25-86c002b764e9" x1="0%" y1="0%" x2="100%" y2="0%"><stop data-v-fde0c5aa="" offset="0%" stop-color="#01648B" stop-opacity="1"></stop><stop data-v-fde0c5aa="" offset="100%" stop-color="#5BD0A4" stop-opacity="1"></stop></linearGradient></defs><g data-v-fde0c5aa="" id="22dbf49c-67da-4fc7-9fce-9cadcb573c45" fill="url(#ccdf82a6-2ed3-4511-ba25-86c002b764e9)" stroke="none" transform="matrix(1.746031746031746,0,0,1.746031746031746,38.25396825396825,38.253092387365925)"><path d="M90.716 58.23a.771.771 0 0 1 .345-.102l-.651-8.221-15.451 8.898 7.379 4.248 8.378-4.823zM38.218 79.959l-.784 9.898 26.347-15.169-8.355-4.635zM38.148 49.908l-.65 8.221c.119.01.239.039.347.102l8.789 5.061h.001l44.49 26.566-.785-9.898-52.192-30.052zM99.914 63.055l7.379-4.248-15.453-8.899-.65 8.221a.799.799 0 0 1 .348.102l8.376 4.824z"></path><path d="M64.904 53.248l8.394 4.613 17.184-9.895a.834.834 0 0 1 .579-.309.827.827 0 0 1 .712.313l17.581 10.121c.014.008.025.02.037.027.026.018.05.033.074.053a.965.965 0 0 1 .112.112c.02.023.036.049.053.074.009.014.02.023.038.061.014.027.025.055.036.082a.634.634 0 0 1 .044.148.532.532 0 0 1 .014.078c.003.027.002.053.002.08 0 .025.001.051-.002.078a.532.532 0 0 1-.014.078.634.634 0 0 1-.018.078c-.007.023-.017.047-.026.07-.011.027-.022.055-.047.105-.005.01-.014.016-.02.023a.717.717 0 0 1-.096.125c-.012.014-.021.025-.035.037a.817.817 0 0 1-.158.119L91.537 69.777a.823.823 0 0 1-.821 0L37.458 38.143 1.573 58.801 37.43 78.514l16.318-9.395-7.517-4.17-8.388 4.828a.815.815 0 0 1-.821 0c-.815-.451-16.51-9.107-17.285-9.568-.514-.305-1.114-.572-1.021-1.271.111-.842 1.209-1.262 1.861-1.637 2.014-1.16 4.028-2.318 6.042-3.479l10.17-5.855a.834.834 0 0 1 .579-.309.83.83 0 0 1 .713.313l53.053 30.545 35.863-19.709L91.125 38.15 64.904 53.248zM127 58.807L91.91 79.949l-.784 9.908L127 69.203z"></path><path d="M21.266 58.807l7.381 4.248 8.377-4.824a.806.806 0 0 1 .346-.102l-.651-8.221-15.453 8.899zM1 58.807v10.396l36.154 20.654-.925-9.908z"></path></g><!----></svg>