<svg xmlns="http://www.w3.org/2000/svg" class="iconLeft" viewBox="0 0 550 90"><g id="bb7a70c2-a4b3-4406-a182-af8a1b88370e" fill="#fff"><path d="M10.56 8.74L5.57 8.74L5.57 10.02L8.92 10.02C8.68 11.65 7.32 12.78 5.57 12.78C3.54 12.78 2.09 11.26 2.09 9.14C2.09 7.04 3.54 5.52 5.57 5.52C7.20 5.52 8.41 6.48 8.82 7.91L10.42 7.91C9.97 5.73 8.01 4.19 5.56 4.19C2.65 4.19 0.53 6.27 0.53 9.14C0.53 12.04 2.65 14.13 5.56 14.13C8.51 14.13 10.57 12.04 10.57 9.14C10.57 9.02 10.56 8.85 10.56 8.74ZM13.59 5.25C13.59 4.75 13.22 4.41 12.68 4.41C12.14 4.41 11.77 4.75 11.77 5.25C11.77 5.74 12.14 6.09 12.68 6.09C13.22 6.09 13.59 5.74 13.59 5.25ZM11.97 7.11L11.97 14L13.40 14L13.40 7.11ZM18.80 7.11L17.25 7.11L17.25 5.33L15.81 5.33L15.81 7.11L14.53 7.11L14.53 8.32L15.81 8.32L15.81 14L17.25 14L17.25 8.32L18.80 8.32ZM23.30 4.19C21.21 4.19 19.77 5.28 19.77 7.03C19.77 10.64 25.48 8.88 25.48 11.28C25.48 12.25 24.60 12.88 23.32 12.88C21.87 12.88 21.03 12.07 21.01 10.96L19.49 10.96C19.54 12.85 20.97 14.13 23.25 14.13C25.48 14.13 27.03 13.02 27.03 11.23C27.03 7.52 21.32 9.35 21.32 6.94C21.32 6.01 22.12 5.43 23.25 5.43C24.47 5.43 25.26 6.10 25.30 7.22L26.78 7.22C26.74 5.36 25.31 4.19 23.30 4.19ZM32.09 7.11L30.53 7.11L30.53 5.33L29.09 5.33L29.09 7.11L27.82 7.11L27.82 8.32L29.09 8.32L29.09 14L30.53 14L30.53 8.32L32.09 8.32ZM38.53 7.11L38.53 8.11C37.93 7.41 37.04 6.99 36.02 6.99C34.08 6.99 32.65 8.48 32.65 10.56C32.65 12.63 34.08 14.13 36.02 14.13C37.04 14.13 37.93 13.71 38.53 13.01L38.53 14L39.96 14L39.96 7.11ZM36.32 12.88C35.04 12.88 34.12 11.91 34.12 10.56C34.12 9.21 35.04 8.23 36.32 8.23C37.60 8.23 38.53 9.21 38.53 10.56C38.53 11.91 37.60 12.88 36.32 12.88ZM45.37 7.11L43.82 7.11L43.82 5.33L42.38 5.33L42.38 7.11L41.10 7.11L41.10 8.32L42.38 8.32L42.38 14L43.82 14L43.82 8.32L45.37 8.32ZM49.04 6.99C47.43 6.99 46.34 7.81 46.34 9.06C46.34 10.68 47.98 10.99 49.01 11.14C49.80 11.28 50.48 11.40 50.48 12.11C50.48 12.68 49.91 13.06 49.11 13.06C48.26 13.06 47.64 12.63 47.61 11.97L46.21 11.97C46.23 13.24 47.40 14.13 49.07 14.13C50.72 14.13 51.90 13.27 51.90 12.03C51.90 10.37 50.16 10.08 49.18 9.90C48.38 9.74 47.75 9.63 47.75 8.92C47.75 8.40 48.29 8.04 49.01 8.04C49.81 8.04 50.36 8.46 50.39 9.07L51.73 9.07C51.73 7.84 50.61 6.99 49.04 6.99Z" transform="matrix(6.036216979508284,0,0,6.036216979508284,236.0795396994857,-10.291749012697657)"/></g><defs><linearGradient id="5dcf1b5b-2dd5-40be-ab6c-edb6ef81b916" x1="0%" x2="100%" y1="0%" y2="0%" gradientTransform="rotate(25)"><stop offset="0%" stop-color="#01648B" stop-opacity="1"/><stop offset="100%" stop-color="#5BD0A4" stop-opacity="1"/></linearGradient></defs><g id="bb416a92-36b6-4553-8e6f-0e0dabe5634e" fill="url(#5dcf1b5b-2dd5-40be-ab6c-edb6ef81b916)" stroke="none" transform="matrix(1.7403074491820585,0,0,1.7403074491820585,-1.379676747651743,-66.23754818636317)"><path d="M90.716 58.23a.771.771 0 0 1 .345-.102l-.651-8.221-15.451 8.898 7.379 4.248 8.378-4.823zM38.218 79.959l-.784 9.898 26.347-15.169-8.355-4.635zM38.148 49.908l-.65 8.221c.119.01.239.039.347.102l8.789 5.061h.001l44.49 26.566-.785-9.898-52.192-30.052zM99.914 63.055l7.379-4.248-15.453-8.899-.65 8.221a.799.799 0 0 1 .348.102l8.376 4.824z"/><path d="M64.904 53.248l8.394 4.613 17.184-9.895a.834.834 0 0 1 .579-.309.827.827 0 0 1 .712.313l17.581 10.121c.014.008.025.02.037.027.026.018.05.033.074.053a.965.965 0 0 1 .112.112c.02.023.036.049.053.074.009.014.02.023.038.061.014.027.025.055.036.082a.634.634 0 0 1 .044.148.532.532 0 0 1 .014.078c.003.027.002.053.002.08 0 .025.001.051-.002.078a.532.532 0 0 1-.014.078.634.634 0 0 1-.018.078c-.007.023-.017.047-.026.07-.011.027-.022.055-.047.105-.005.01-.014.016-.02.023a.717.717 0 0 1-.096.125c-.012.014-.021.025-.035.037a.817.817 0 0 1-.158.119L91.537 69.777a.823.823 0 0 1-.821 0L37.458 38.143 1.573 58.801 37.43 78.514l16.318-9.395-7.517-4.17-8.388 4.828a.815.815 0 0 1-.821 0c-.815-.451-16.51-9.107-17.285-9.568-.514-.305-1.114-.572-1.021-1.271.111-.842 1.209-1.262 1.861-1.637 2.014-1.16 4.028-2.318 6.042-3.479l10.17-5.855a.834.834 0 0 1 .579-.309.83.83 0 0 1 .713.313l53.053 30.545 35.863-19.709L91.125 38.15 64.904 53.248zM127 58.807L91.91 79.949l-.784 9.908L127 69.203z"/><path d="M21.266 58.807l7.381 4.248 8.377-4.824a.806.806 0 0 1 .346-.102l-.651-8.221-15.453 8.899zM1 58.807v10.396l36.154 20.654-.925-9.908z"/></g></svg>