<svg xmlns="http://www.w3.org/2000/svg" width="1285.333" height="229.333" preserveAspectRatio="xMidYMid meet" version="1.0" viewBox="0 0 964 172"><metadata>Created by potrace 1.15, written by Peter Selinger 2001-2017</metadata><g fill="#000" stroke="none"><path d="M0 860 l0 -860 4820 0 4820 0 0 860 0 860 -4820 0 -4820 0 0 -860z m3755 193 l50 -29 0 -155 0 -154 -505 -292 c-278 -160 -509 -292 -514 -292 -8 -1 -2 146 10 235 l6 42 461 278 c254 152 467 282 472 287 13 13 61 39 -480 -258 -258 -142 -474 -258 -480 -258 -10 0 -989 562 -1183 678 l-53 32 86 77 86 77 32 -20 c372 -226 1025 -601 1039 -598 26 7 527 297 534 309 11 17 -12 31 -288 191 l-255 147 -258 -149 -259 -150 -70 40 c-39 22 -90 50 -114 62 -23 11 -41 25 -39 30 1 4 169 104 372 221 l369 213 466 -267 c256 -147 488 -281 515 -297z m1299 288 c122 -43 224 -133 276 -244 45 -95 44 -97 -48 -97 l-77 0 -24 52 c-53 116 -162 180 -306 181 -67 1 -90 -4 -140 -27 -142 -65 -212 -189 -203 -362 8 -149 89 -267 217 -315 80 -30 214 -24 287 14 76 39 110 71 143 139 51 102 57 98 -134 98 l-165 0 0 65 0 65 250 0 250 0 0 -52 c-1 -323 -303 -550 -628 -473 -219 52 -360 216 -379 441 -22 261 138 479 392 534 66 15 223 4 289 -19z m1738 9 c118 -36 200 -125 214 -234 l7 -46 -75 0 -75 0 -6 35 c-14 83 -89 138 -193 138 -33 0 -77 -6 -96 -12 -66 -22 -116 -100 -101 -160 17 -71 64 -96 261 -140 181 -41 243 -75 284 -154 62 -122 11 -278 -116 -352 -101 -59 -290 -71 -410 -25 -106 40 -185 136 -201 243 l-7 47 75 0 75 0 11 -44 c24 -97 100 -146 227 -146 134 0 214 59 214 157 0 38 -6 51 -33 78 -35 35 -84 52 -267 95 -192 45 -270 117 -270 251 0 74 18 124 63 175 90 103 265 142 419 94z m-1129 -31 c9 -12 17 -38 17 -59 0 -77 -93 -108 -151 -51 -62 62 -11 148 81 136 19 -2 43 -14 53 -26z m-4469 -86 c3 -21 8 -72 11 -113 l6 -75 -125 -73 -126 -72 -100 57 c-55 32 -100 60 -100 63 0 5 409 247 422 249 3 1 9 -16 12 -36z m1560 -30 c4 -38 9 -88 11 -113 l5 -45 -126 -72 -125 -73 -99 58 c-55 31 -100 59 -100 62 0 5 409 247 422 249 3 1 9 -29 12 -66z m269 -58 c114 -65 207 -121 207 -124 0 -3 -45 -32 -100 -64 l-100 -58 -126 73 -125 72 6 91 c7 104 13 137 23 132 4 -2 100 -57 215 -122z m3027 25 l0 -90 80 0 80 0 0 -65 0 -65 -80 0 -80 0 0 -285 0 -285 -70 0 -70 0 0 285 0 285 -65 0 -65 0 0 65 0 65 65 0 65 0 0 90 0 90 70 0 70 0 0 -90z m1340 0 l0 -90 80 0 81 0 -3 -62 -3 -63 -77 -3 -78 -3 0 -284 0 -285 -70 0 -70 0 0 285 0 285 -65 0 -65 0 0 65 0 65 65 0 65 0 0 90 0 90 70 0 70 0 0 -90z m1340 0 l0 -89 78 -3 77 -3 0 -60 0 -60 -77 -3 -78 -3 0 -285 0 -285 -72 3 -73 3 -3 283 -2 282 -60 0 -60 0 0 65 0 65 60 0 60 0 0 83 c0 46 3 87 7 90 3 4 37 7 75 7 l68 0 0 -90z m-652 -110 c26 -12 64 -34 85 -51 l37 -30 0 51 0 50 70 0 70 0 0 -350 0 -350 -70 0 -70 0 0 51 0 51 -36 -32 c-63 -55 -118 -73 -219 -74 -79 -1 -97 2 -146 27 -104 51 -171 146 -187 266 -34 244 128 433 356 416 34 -2 84 -14 110 -25z m1262 19 c94 -20 165 -86 184 -171 l6 -28 -68 0 c-66 0 -68 1 -79 30 -18 48 -67 72 -140 68 -79 -5 -113 -32 -113 -90 0 -51 28 -68 162 -97 177 -39 248 -98 248 -205 0 -87 -42 -145 -135 -188 -69 -32 -227 -32 -296 -1 -59 27 -113 82 -127 132 -19 61 -18 61 56 61 66 0 67 -1 82 -33 8 -17 31 -42 50 -55 30 -20 45 -23 104 -20 62 3 71 7 97 36 61 68 26 121 -97 146 -209 44 -270 83 -289 187 -29 156 151 272 355 228z m-3675 -349 l0 -345 -72 -3 -73 -3 0 351 0 351 73 -3 72 -3 0 -345z m-3325 -90 c222 -127 405 -231 406 -233 5 -5 24 -270 20 -274 -5 -5 -912 537 -946 565 -19 17 -18 19 43 94 34 42 64 77 68 78 3 0 187 -104 409 -230z m-764 139 c52 -28 94 -53 94 -57 0 -6 -437 -262 -453 -266 -10 -2 -287 156 -287 164 0 4 33 38 74 75 l74 66 70 -35 69 -35 119 69 c66 38 125 70 133 70 7 0 56 -23 107 -51z m-741 -169 c176 -105 325 -194 332 -198 11 -7 40 -268 31 -278 -7 -7 -788 441 -788 452 0 7 69 174 81 197 5 9 13 17 17 17 4 0 152 -86 327 -190z m1029 8 c53 -28 95 -55 94 -60 -3 -9 -521 -307 -526 -303 -3 3 330 415 334 415 2 0 46 -23 98 -52z" transform="translate(0.000000,172.000000) scale(0.100000,-0.100000)"/><path d="M7871 939 c-157 -80 -155 -342 4 -419 68 -33 168 -26 227 15 126 89 123 303 -5 392 -56 39 -162 44 -226 12z" transform="translate(0.000000,172.000000) scale(0.100000,-0.100000)"/></g></svg>