<?xml version="1.0" encoding="UTF-8"?>
<svg xmlns="http://www.w3.org/2000/svg" xmlns:xlink="http://www.w3.org/1999/xlink" width="40px" height="40px" viewBox="0 0 64 64" version="1.1">
<g id="surface1162883">
<path style=" stroke:none;fill-rule:nonzero;fill:rgb(10.196078%,73.72549%,61.176471%);fill-opacity:1;" d="M 0.988281 32 C 0.988281 14.875 14.875 0.988281 32 0.988281 C 49.125 0.988281 63.011719 14.875 63.011719 32 C 63.011719 49.125 49.125 63.011719 32 63.011719 C 14.875 63.011719 0.988281 49.125 0.988281 32 Z M 0.988281 32 "/>
<path style=" stroke:none;fill-rule:nonzero;fill:rgb(100%,100%,100%);fill-opacity:1;" d="M 19.300781 25.386719 C 15.585938 25.386719 12.574219 28.398438 12.574219 32.113281 C 12.574219 35.828125 15.585938 38.835938 19.300781 38.835938 C 23.015625 38.835938 26.023438 35.828125 26.023438 32.113281 C 26.023438 28.398438 23.015625 25.386719 19.300781 25.386719 Z M 39.835938 13.425781 C 36.125 13.425781 33.113281 16.4375 33.113281 20.148438 C 33.113281 23.863281 36.125 26.875 39.835938 26.875 C 43.550781 26.875 46.5625 23.863281 46.5625 20.148438 C 46.5625 16.4375 43.550781 13.425781 39.835938 13.425781 Z M 39.835938 37.125 C 36.125 37.125 33.113281 40.136719 33.113281 43.851562 C 33.113281 47.5625 36.125 50.574219 39.835938 50.574219 C 43.550781 50.574219 46.5625 47.5625 46.5625 43.851562 C 46.5625 40.136719 43.550781 37.125 39.835938 37.125 Z M 39.835938 37.125 "/>
<path style=" stroke:none;fill-rule:nonzero;fill:rgb(100%,100%,100%);fill-opacity:1;" d="M 38.929688 18.367188 L 40.746094 21.488281 L 20.214844 33.449219 L 18.394531 30.324219 Z M 38.929688 18.367188 "/>
<path style=" stroke:none;fill-rule:nonzero;fill:rgb(100%,100%,100%);fill-opacity:1;" d="M 20.210938 30.328125 L 40.746094 42.285156 L 38.929688 45.40625 L 18.394531 33.449219 Z M 20.210938 30.328125 "/>
</g>
</svg>
